<svg width="32" height="32" viewBox="0 0 32 32" fill="none" xmlns="http://www.w3.org/2000/svg">
  <!-- Lotus flower icon - geometric, modern interpretation -->

  <!-- Center petal (vertical) -->
  <path d="M16 4C16 4 13 8 13 14C13 17 14.5 20 16 20C17.5 20 19 17 19 14C19 8 16 4 16 4Z"
        fill="url(#lotus-gradient-1)" opacity="0.9"/>

  <!-- Left petal -->
  <path d="M10 10C10 10 6 12 6 16C6 18.5 8 21 10 21C12 21 14 18.5 14 16C14 12 10 10 10 10Z"
        fill="url(#lotus-gradient-2)" opacity="0.85"/>

  <!-- Right petal -->
  <path d="M22 10C22 10 26 12 26 16C26 18.5 24 21 22 21C20 21 18 18.5 18 16C18 12 22 10 22 10Z"
        fill="url(#lotus-gradient-3)" opacity="0.85"/>

  <!-- Bottom left petal -->
  <path d="M8 16C8 16 5 18 5 21C5 23 6.5 25 8 25C9.5 25 11 23 11 21C11 18 8 16 8 16Z"
        fill="url(#lotus-gradient-4)" opacity="0.75"/>

  <!-- Bottom right petal -->
  <path d="M24 16C24 16 27 18 27 21C27 23 25.5 25 24 25C22.5 25 21 23 21 21C21 18 24 16 24 16Z"
        fill="url(#lotus-gradient-5)" opacity="0.75"/>

  <!-- Center circle (seed pod) -->
  <circle cx="16" cy="16" r="3" fill="url(#center-gradient)" opacity="0.95"/>

  <!-- Gradients -->
  <defs>
    <!-- Primary gradient (pink to blue) -->
    <linearGradient id="lotus-gradient-1" x1="13" y1="4" x2="19" y2="20" gradientUnits="userSpaceOnUse">
      <stop offset="0%" stop-color="#E91E63"/>
      <stop offset="100%" stop-color="#AD1457"/>
    </linearGradient>

    <linearGradient id="lotus-gradient-2" x1="6" y1="10" x2="14" y2="21" gradientUnits="userSpaceOnUse">
      <stop offset="0%" stop-color="#E91E63"/>
      <stop offset="100%" stop-color="#00BCD4"/>
    </linearGradient>

    <linearGradient id="lotus-gradient-3" x1="26" y1="10" x2="18" y2="21" gradientUnits="userSpaceOnUse">
      <stop offset="0%" stop-color="#00BCD4"/>
      <stop offset="100%" stop-color="#E91E63"/>
    </linearGradient>

    <linearGradient id="lotus-gradient-4" x1="5" y1="16" x2="11" y2="25" gradientUnits="userSpaceOnUse">
      <stop offset="0%" stop-color="#FFC107"/>
      <stop offset="100%" stop-color="#E91E63"/>
    </linearGradient>

    <linearGradient id="lotus-gradient-5" x1="27" y1="16" x2="21" y2="25" gradientUnits="userSpaceOnUse">
      <stop offset="0%" stop-color="#FFC107"/>
      <stop offset="100%" stop-color="#00BCD4"/>
    </linearGradient>

    <!-- Center gradient -->
    <radialGradient id="center-gradient" cx="50%" cy="50%" r="50%">
      <stop offset="0%" stop-color="#FFC107"/>
      <stop offset="100%" stop-color="#FFA000"/>
    </radialGradient>
  </defs>
</svg>
